# xmcd
#
# Track frame offsets: 
#        150
#        11224
#        29603
#        46390
#        58034
#        73995
#        91164
#        107020
#        126637
#        141077
#        155589
#        173151
#
# Disc length: 2538 seconds
#
# Revision: 1
# Processed by: cddbd v1.5.2PL0 Copyright (c) Steve Scherf et al.
# Submitted via: ExactAudioCopy v0.99pb4
#
DISCID=b009e80c
DTITLE=The Nighthawks - Damn Good Time
DYEAR=2012
DGENRE=Blues
TTITLE0=Too Much
TTITLE1=Who You're Workin' For
TTITLE2=Damn Good Time
TTITLE3=Bring Your Sister
TTITLE4=Send for Me
TTITLE5=Minimum Wage
TTITLE6=Georgia Slop
TTITLE7=Night Work
TTITLE8=Let's Work Together
TTITLE9=Smack Dab in the Middle
TTITLE10=Down to My Last Million Tears
TTITLE11=Heartbreak Shake
EXTD=
EXTT0=
EXTT1=
EXTT2=
EXTT3=
EXTT4=
EXTT5=
EXTT6=
EXTT7=
EXTT8=
EXTT9=
EXTT10=
EXTT11=
PLAYORDER=
